<?xml version="1.0" encoding="utf-8"?>
<!-- Generator: Adobe Illustrator 23.0.2, SVG Export Plug-In . SVG Version: 6.00 Build 0)  -->
<svg version="1.1" id="Layer_1" xmlns="http://www.w3.org/2000/svg" xmlns:xlink="http://www.w3.org/1999/xlink" x="0px" y="0px"
	 viewBox="0 0 175 175" style="enable-background:new 0 0 175 175;" xml:space="preserve">
<style type="text/css">
	.st0{fill:#F6D27C;}
	.st1{clip-path:url(#SVGID_2_);}
	.st2{fill:#F68561;}
	.st3{fill:#F9B69B;}
	.st4{fill:#040403;}
	.st5{fill:#907053;}
	.st6{fill:#755744;}
	.st7{fill:#6C4F39;}
	.st8{fill:#483426;}
</style>
<circle class="st0" cx="87.5" cy="87.5" r="87.5"/>
<g>
	<defs>
		<circle id="SVGID_1_" cx="87.5" cy="87.5" r="87.5"/>
	</defs>
	<clipPath id="SVGID_2_">
		<use xlink:href="#SVGID_1_"  style="overflow:visible;"/>
	</clipPath>
	<g class="st1">
		<path class="st2" d="M105.8,141.99c10.6-0.14,19.47,3.59,26.1,11.98c1.52,1.92,2.73,4.19,2.75,6.82
			c-7.99,5.78-16.99,9.29-26.37,12.07c-4.2,1.24-8.75,0.95-12.7,3.14c-0.67,0-1.33,0-2,0c-5.67-1.5-11.33-1.61-17,0
			c-0.33,0-0.67,0-1,0c-0.64-1.32-1.92-1.04-3.03-1.23c-13.44-2.33-25.89-7.08-36.99-15.14c0.45-6.42,5.04-9.92,9.77-12.92
			c5.41-3.43,11.53-5.07,18.05-4.72c3.27,9.03,10.21,13.6,20.9,13.75C94.77,155.89,102.38,151.02,105.8,141.99z"/>
		<path class="st3" d="M93.58,176c-5.67,0-11.33,0-17,0"/>
		<path class="st4" d="M44.56,98.3c-0.29-0.16-0.75-0.25-0.83-0.48c-4.57-12.14-7.18-24.62-3.76-37.43
			c1.68-6.29,6.83-10.01,12.87-12.28c1.64-0.62,3.32-0.79,4.3-2.83c6.54-13.64,17.93-19.06,32.51-18.16
			c18.36,1.14,38.09,10.39,45.72,32.63c3.2,9.32,2.8,18.26-1.79,26.95c-2.57,4.87-4.13,10.43-9.05,13.77
			c0.23-4.64,0.48-9.28,0.67-13.92c0.06-1.56,0.08-3.41-2.34-2.2c-10.16,5.06-19.63,2.22-29.13-2.15
			c-9.37-4.31-19.32-5.87-29.62-5.2C50,77.93,44.27,84.18,44.56,98.3z"/>
		<path class="st5" d="M44.56,98.3C44.27,84.18,50,77.93,64.09,77.02c10.29-0.67,20.25,0.89,29.62,5.2
			c9.5,4.37,18.97,7.21,29.13,2.15c2.42-1.21,2.41,0.64,2.34,2.2c-0.19,4.64-0.44,9.28-0.67,13.92
			c-2.45,8.26-5.74,16.09-10.94,23.09c-2.38,3.2-6.43,4.69-8.1,8.48c-7.71,4.34-15.82,5.99-24.77,5.15
			c-6.18-0.58-11.36-3.42-17.01-5.18c0.03-4.28-4.34-5.04-6.33-7.77c-4.63-6.37-8.26-13.12-10.63-20.6
			C46.16,101.83,45.29,100.09,44.56,98.3z M96.99,116.65c-0.13-1.43-1-1.61-1.81-1.61c-6.98-0.04-13.96-0.12-20.94,0.02
			c-2.91,0.06-2.51,1.79-0.9,3.14c3.05,2.55,6.26,4.91,9.47,7.26c0.98,0.72,2.31,0.79,3.31,0.06c3.36-2.43,6.65-4.96,9.92-7.5
			C96.53,117.64,96.78,116.97,96.99,116.65z M70.61,96.85c-0.5-2.42-1.39-4.69-4.5-4.79c-3.1-0.1-5.18,1.54-5.31,4.61
			c-0.13,3.05,1.86,5.04,4.87,5.06C68.47,101.75,70.02,99.77,70.61,96.85z M103.45,101.88c2.79-0.43,4.78-1.91,4.96-4.75
			c0.18-2.89-1.56-4.82-4.45-5.01c-3.16-0.21-5.16,1.62-5.21,4.76C98.71,99.77,100.73,101.26,103.45,101.88z"/>
		<path class="st6" d="M63.7,132.03c5.65,1.76,10.83,4.6,17.01,5.18c8.95,0.84,17.06-0.81,24.77-5.15c0.11,3.31,0.22,6.62,0.33,9.93
			c-3.42,9.03-11.04,13.9-21.51,13.75c-10.7-0.15-17.63-4.72-20.9-13.75C63.49,138.67,63.59,135.35,63.7,132.03z"/>
		<path class="st7" d="M96.99,116.65c-0.21,0.32-0.47,0.99-0.95,1.36c-3.27,2.54-6.56,5.07-9.92,7.5c-1.01,0.73-2.33,0.66-3.31-0.06
			c-3.21-2.35-6.43-4.71-9.47-7.26c-1.61-1.35-2.01-3.08,0.9-3.14c6.98-0.14,13.96-0.05,20.94-0.02
			C96,115.04,96.87,115.22,96.99,116.65z"/>
		<path class="st8" d="M70.61,96.85c-0.59,2.92-2.13,4.9-4.93,4.88c-3.01-0.02-5-2.01-4.87-5.06c0.13-3.07,2.21-4.71,5.31-4.61
			C69.22,92.17,70.11,94.44,70.61,96.85z"/>
		<path class="st8" d="M103.45,101.88c-2.72-0.62-4.75-2.12-4.7-5.01c0.05-3.13,2.04-4.97,5.21-4.76c2.89,0.19,4.63,2.12,4.45,5.01
			C108.23,99.98,106.25,101.46,103.45,101.88z"/>
	</g>
</g>
</svg>
